control3min_grf.mot
version=1
nRows=25
nColumns 19
inDegrees=yes
endheader
time	1_ground_force_vx	1_ground_force_vy	1_ground_force_vz	1_ground_force_px	1_ground_force_py	1_ground_force_pz	1_ground_torque_x	1_ground_torque_y	1_ground_torque_z	2_ground_force_vx	2_ground_force_vy	2_ground_force_vz	2_ground_force_px	2_ground_force_py	2_ground_force_pz	2_ground_torque_x	2_ground_torque_y	2_ground_torque_z
            0.005000	           -2.297193	          756.077160	          -90.943015	           -0.271947	            0.006183	           -0.397682	           -0.013658	            4.495152	           -0.540689	            0.909250	          626.050061	           72.250053	           -0.267848	            0.005693	           -0.747235	           -0.004902	           -3.375239	           -0.389523
            0.005500	           -2.525704	          754.093634	          -90.813377	           -0.271736	            0.006184	           -0.397853	           -0.014581	            4.353544	           -0.524285	            0.729182	          624.023608	           72.289840	           -0.267552	            0.005696	           -0.747644	           -0.003857	           -3.300953	           -0.382398
            0.006000	           -3.074496	          751.207900	          -90.503384	           -0.271673	            0.006184	           -0.397862	           -0.017573	            4.293713	           -0.517294	            0.593826	          622.550857	           72.003075	           -0.267337	            0.005697	           -0.747711	           -0.003131	           -3.282657	           -0.379666
            0.006500	           -3.439413	          748.681690	          -89.963025	           -0.271511	            0.006184	           -0.397965	           -0.020081	            4.371197	           -0.525251	            0.226317	          620.524063	           71.949071	           -0.267148	            0.005697	           -0.747609	           -0.001194	           -3.273663	           -0.379578
            0.007000	           -3.667292	          747.598146	          -89.508542	           -0.271295	            0.006184	           -0.397773	           -0.022462	            4.579021	           -0.548238	            0.566065	          617.211931	           71.561680	           -0.267037	            0.005697	           -0.747546	           -0.002966	           -3.234035	           -0.374965
            0.007500	           -3.894989	          744.892378	          -89.106852	           -0.271195	            0.006184	           -0.397868	           -0.024704	            4.724505	           -0.565163	            0.108076	          614.264871	           71.269797	           -0.266823	            0.005698	           -0.747587	           -0.000551	           -3.131269	           -0.363304
            0.008000	           -4.260394	          742.547250	          -88.749144	           -0.270993	            0.006185	           -0.398047	           -0.025873	            4.509347	           -0.538956	           -0.072115	          612.239422	           71.028017	           -0.266792	            0.005698	           -0.747546	            0.000364	           -3.086077	           -0.358026
            0.008500	           -4.809660	          740.383169	          -88.573630	           -0.271109	            0.006184	           -0.397951	           -0.028269	            4.351582	           -0.520589	           -0.392068	          610.028260	           71.067192	           -0.266657	            0.005699	           -0.747570	            0.001912	           -2.974540	           -0.346529
            0.009000	           -5.220519	          738.397838	          -88.030838	           -0.270884	            0.006184	           -0.397873	           -0.029536	            4.177613	           -0.498050	           -0.708301	          606.714430	           70.492367	           -0.266426	            0.005699	           -0.747313	            0.003377	           -2.892707	           -0.336095
            0.009500	           -5.264990	          735.872476	          -87.674698	           -0.270629	            0.006185	           -0.397961	           -0.030039	            4.198418	           -0.500216	           -0.608620	          605.057441	           70.486414	           -0.266202	            0.005701	           -0.747636	            0.002940	           -2.922723	           -0.340484
            0.010000	           -5.721219	          733.165484	          -86.997328	           -0.270374	            0.006185	           -0.397994	           -0.034468	            4.416992	           -0.524120	           -0.739262	          602.295264	           70.335841	           -0.266142	            0.005701	           -0.747522	            0.003550	           -2.892538	           -0.337790
            0.010500	           -5.949110	          730.279813	          -86.688131	           -0.270359	            0.006185	           -0.398081	           -0.036959	            4.536903	           -0.538555	           -1.201238	          600.453048	           70.047901	           -0.266078	            0.005701	           -0.747472	            0.005584	           -2.791068	           -0.325602
            0.011000	           -6.176599	          729.555953	          -86.048663	           -0.269844	            0.006184	           -0.397776	           -0.038498	            4.547201	           -0.536327	           -1.192016	          597.875626	           69.850990	           -0.265729	            0.005702	           -0.747572	            0.005448	           -2.732707	           -0.319268
            0.011500	           -6.680019	          726.130445	          -85.970394	           -0.269950	            0.006185	           -0.397955	           -0.039853	            4.332122	           -0.512903	           -1.464640	          595.482060	           69.467143	           -0.265575	            0.005702	           -0.747445	            0.006373	           -2.591168	           -0.302278
            0.012000	           -6.770415	          723.424975	          -85.660766	           -0.269804	            0.006185	           -0.398029	           -0.039233	            4.192076	           -0.496384	           -1.453320	          592.351317	           69.502893	           -0.265533	            0.005703	           -0.747465	            0.006261	           -2.552073	           -0.299445
            0.012500	           -6.996763	          721.437713	          -84.659877	           -0.269519	            0.006184	           -0.397818	           -0.039932	            4.117409	           -0.483173	           -1.722683	          589.037489	           68.974984	           -0.265156	            0.005704	           -0.747424	            0.007297	           -2.494976	           -0.292156
            0.013000	           -7.499697	          719.092559	          -84.301827	           -0.269425	            0.006184	           -0.397771	           -0.043321	            4.153739	           -0.486958	           -1.620925	          586.827347	           69.154772	           -0.264832	            0.005706	           -0.747644	            0.006818	           -2.468513	           -0.290902
            0.013500	           -7.543630	          715.485074	          -83.812753	           -0.269294	            0.006185	           -0.398044	           -0.045537	            4.318997	           -0.505932	           -1.566265	          584.619167	           68.771443	           -0.264923	            0.005706	           -0.747705	            0.006633	           -2.475759	           -0.291235
            0.014000	           -7.909131	          712.419398	          -83.549840	           -0.269131	            0.006186	           -0.398201	           -0.049345	            4.444795	           -0.521269	           -1.793326	          582.593595	           68.482746	           -0.264699	            0.005706	           -0.747630	            0.007339	           -2.384348	           -0.280275
            0.014500	           -7.953390	          709.353073	          -83.150167	           -0.268873	            0.006186	           -0.398293	           -0.049338	            4.400431	           -0.515817	           -1.735281	          579.464148	           68.236908	           -0.264647	            0.005706	           -0.747393	            0.007119	           -2.377407	           -0.279960
            0.015000	           -8.135666	          706.467804	          -82.932804	           -0.268881	            0.006187	           -0.398384	           -0.048042	            4.171760	           -0.489726	           -1.682031	          577.624796	           67.667180	           -0.264314	            0.005707	           -0.747476	            0.006653	           -2.284681	           -0.267644
            0.015500	           -8.454824	          705.023061	          -82.342068	           -0.268500	            0.006184	           -0.397843	           -0.047778	            3.984078	           -0.465314	           -1.904462	          574.310468	           67.326963	           -0.264322	            0.005707	           -0.747599	            0.007226	           -2.178930	           -0.255438
            0.016000	           -8.499149	          702.317328	          -81.940834	           -0.268296	            0.006185	           -0.397941	           -0.047851	            3.954114	           -0.461335	           -1.937999	          570.627195	           67.360763	           -0.264158	            0.005708	           -0.747471	            0.007484	           -2.203463	           -0.260112
            0.016500	           -8.864081	          699.250547	          -81.448661	           -0.268136	            0.006185	           -0.397951	           -0.051173	            4.036847	           -0.470212	           -1.740691	          567.866080	           67.210050	           -0.263883	            0.005708	           -0.747252	            0.006706	           -2.187857	           -0.258945
            0.017000	           -8.954264	          696.004114	          -81.095499	           -0.267998	            0.006186	           -0.398088	           -0.054531	            4.238659	           -0.493871	           -1.872725	          565.472687	           66.920000	           -0.263923	            0.005709	           -0.747616	            0.007153	           -2.159884	           -0.255608
